<?xml version="1.0" encoding="UTF-8" standalone="no"?>
<!-- Created with Inkscape (http://www.inkscape.org/) -->

<svg
   xmlns:dc="http://purl.org/dc/elements/1.1/"
   xmlns:cc="http://creativecommons.org/ns#"
   xmlns:rdf="http://www.w3.org/1999/02/22-rdf-syntax-ns#"
   xmlns:svg="http://www.w3.org/2000/svg"
   xmlns="http://www.w3.org/2000/svg"
   xmlns:sodipodi="http://sodipodi.sourceforge.net/DTD/sodipodi-0.dtd"
   xmlns:inkscape="http://www.inkscape.org/namespaces/inkscape"
   width="52.818508mm"
   height="52.552929mm"
   viewBox="0 0 52.818508 52.552929"
   version="1.1"
   id="svg8"
   inkscape:version="0.92.3 (2405546, 2018-03-11)"
   sodipodi:docname="Kingsman_logo.svg">
  <defs
     id="defs2" />
  <sodipodi:namedview
     id="base"
     pagecolor="#ffffff"
     bordercolor="#f2bf0d"
     borderopacity="1.0"
     inkscape:pageopacity="0.0"
     inkscape:pageshadow="2"
     inkscape:zoom="0.35"
     inkscape:cx="-373.46496"
     inkscape:cy="-38.748961"
     inkscape:document-units="mm"
     inkscape:current-layer="layer1"
     showgrid="false"
     fit-margin-top="5"
     fit-margin-left="5"
     fit-margin-bottom="5"
     fit-margin-right="5"
     inkscape:window-width="1600"
     inkscape:window-height="837"
     inkscape:window-x="-8"
     inkscape:window-y="-8"
     inkscape:window-maximized="1" />
  <metadata
     id="metadata5">
    <rdf:RDF>
      <cc:Work
         rdf:about="">
        <dc:format>image/svg+xml</dc:format>
        <dc:type
           rdf:resource="http://purl.org/dc/dcmitype/StillImage" />
        <dc:title></dc:title>
      </cc:Work>
    </rdf:RDF>
  </metadata>
  <g
     inkscape:label="Layer 1"
     inkscape:groupmode="layer"
     id="layer1"
     transform="translate(-81.803676,-86.028076)">
    <g
       id="g867"
       transform="matrix(0.03527778,0,0,-0.03527778,-53.077096,232.48947)"
       style="fill:#f2bf0d;stroke:none">
      <path
         id="path847"
         d="m 4415,3993 c -227,-68 -393,-243 -438,-463 -25,-122 -10,-263 40,-365 55,-111 61,-121 111,-170 146,-146 300,-204 502,-189 254,19 463,202 530,464 25,97 25,173 1,271 -44,178 -165,331 -326,411 -114,56 -306,75 -420,41 z m 307,-93 c 31,-11 72,-29 90,-40 18,-11 42,-24 53,-29 11,-5 46,-36 78,-69 68,-68 74,-102 22,-113 -32,-6 -102,-43 -173,-90 -24,-16 -47,-29 -53,-29 -5,0 -9,-4 -9,-9 0,-5 -17,-20 -37,-32 -21,-12 -53,-35 -71,-51 -18,-15 -42,-28 -53,-28 -11,0 -64,33 -117,73 -53,40 -108,80 -122,88 -58,37 -137,77 -162,83 -43,10 -35,38 31,108 57,61 125,104 226,142 62,23 226,21 297,-4 z m -584,-329 c 9,-4 35,-17 57,-27 47,-22 173,-107 265,-178 71,-55 81,-66 74,-78 -3,-4 -106,-8 -228,-8 -173,0 -226,3 -234,13 -19,23 -25,122 -12,194 17,91 32,107 78,84 z m 935,-46 c 22,-60 21,-201 -2,-229 -12,-15 -39,-16 -240,-14 -154,2 -226,6 -226,14 0,13 155,144 169,144 4,0 26,15 50,33 23,17 69,45 102,61 32,16 66,32 74,37 33,18 54,5 73,-46 z m -48,-346 c 8,-12 -33,-76 -87,-135 -40,-44 -122,-97 -188,-122 -94,-37 -266,-37 -360,-1 -114,45 -249,166 -274,247 l -7,22 h 455 c 309,0 457,-3 461,-11 z"
         inkscape:connector-curvature="0" />
    </g>
  </g>
</svg>
